<svg width="100" height="100" viewBox="0 0 100 100" fill="none" xmlns="http://www.w3.org/2000/svg">
<circle cx="50" cy="50" r="50" fill="white"/>
<path d="M74.1816 41.7532L74.9788 37.2889C75.1253 36.4681 74.4942 35.7143 73.6604 35.7143H65.311L66.9431 26.5747C67.0896 25.7538 66.4585 25 65.6247 25H61.0898C60.7755 25 60.4711 25.1106 60.2301 25.3124C59.989 25.5142 59.8267 25.7944 59.7714 26.1039L58.0552 35.7143H47.0469L48.6789 26.5747C48.8256 25.7538 48.1944 25 47.3605 25H42.8257C42.5113 25 42.2069 25.1106 41.9659 25.3124C41.7249 25.5142 41.5625 25.7944 41.5073 26.1039L39.7911 35.7143H30.9634C30.649 35.7143 30.3447 35.8249 30.1036 36.0267C29.8626 36.2285 29.7002 36.5087 29.645 36.8182L28.8478 41.2825C28.7012 42.1033 29.3324 42.8571 30.1662 42.8571H38.5155L35.9645 57.1428H27.1368C26.8225 57.1428 26.5181 57.2534 26.2771 57.4553C26.036 57.6571 25.8737 57.9373 25.8184 58.2467L25.0212 62.711C24.8747 63.5319 25.5058 64.2857 26.3396 64.2857H34.689L33.0569 73.4253C32.9104 74.2462 33.5415 75 34.3753 75H38.9102C39.2245 75 39.5289 74.8894 39.7699 74.6876C40.011 74.4857 40.1733 74.2056 40.2286 73.8961L41.9449 64.2857H52.9531L51.3211 73.4253C51.1744 74.2462 51.8056 75 52.6395 75H57.1743C57.4887 75 57.7931 74.8894 58.0341 74.6876C58.2751 74.4857 58.4375 74.2056 58.4927 73.8961L60.2089 64.2857H69.0366C69.351 64.2857 69.6553 64.1751 69.8964 63.9733C70.1374 63.7715 70.2998 63.4913 70.355 63.1818L71.1522 58.7175C71.2988 57.8966 70.6676 57.1428 69.8338 57.1428H61.4845L64.0355 42.8571H72.8632C73.1775 42.8571 73.4819 42.7465 73.7229 42.5447C73.964 42.3429 74.1263 42.0627 74.1816 41.7532V41.7532ZM54.2287 57.1428H43.2204L45.7714 42.8571H56.7797L54.2287 57.1428Z" fill="black"/>
</svg>
