<svg width="505" height="307" viewBox="0 0 505 307" fill="none" xmlns="http://www.w3.org/2000/svg">
<path d="M185.718 222.842C187.648 230.624 180.252 237.467 172.781 234.81L15.9444 179.038C8.79605 176.496 6.99029 167.099 12.6711 162.005L129.649 57.1049C135.228 52.1019 144.045 54.8566 145.859 62.1694L185.718 222.842Z" fill="#FFDDD2"/>
<path d="M149.424 246.51L193.375 84.0365C196.409 72.819 185.912 62.6829 175.005 66.2993L19.6521 117.81C9.39207 121.212 6.33855 134.424 14.0395 142.094L125.442 253.057C133.284 260.868 146.518 257.255 149.424 246.51Z" stroke="#E29578" stroke-opacity="0.95" stroke-width="9"/>
<path d="M183.222 158.856C180.001 160.309 176.686 161.509 173.275 162.456C169.928 163.34 166.55 164.193 163.14 165.014C163.013 165.014 162.666 165.077 162.098 165.203C161.592 165.329 161.056 165.487 160.487 165.677C159.919 165.803 159.382 165.929 158.877 166.056C158.435 166.119 158.214 166.15 158.214 166.15C157.456 165.898 156.698 165.898 155.94 166.15C155.246 166.34 154.52 166.592 153.762 166.908C153.067 167.224 152.309 167.477 151.488 167.666C150.667 167.792 149.752 167.634 148.741 167.192C148.552 167.129 148.204 167.192 147.699 167.382C147.194 167.508 146.689 167.698 146.184 167.95C145.678 168.203 145.236 168.519 144.857 168.897C144.479 169.213 144.257 169.497 144.194 169.75L144.763 170.318C144.826 170.508 144.731 170.887 144.479 171.455C144.226 171.96 143.942 172.529 143.626 173.16C143.31 173.729 142.963 174.265 142.584 174.771C142.268 175.276 142.016 175.591 141.826 175.718C141.889 176.286 141.731 176.981 141.353 177.802C141.037 178.56 140.658 179.381 140.216 180.265C139.837 181.149 139.458 182.064 139.079 183.012C138.763 183.959 138.605 184.843 138.605 185.664C138.605 185.917 138.637 186.169 138.7 186.422C138.763 186.674 138.763 186.896 138.7 187.085L138.605 187.274C137.974 187.78 137.5 188.443 137.185 189.264C136.932 190.021 136.711 190.842 136.521 191.727C136.395 192.548 136.206 193.368 135.953 194.189C135.764 195.01 135.416 195.737 134.911 196.368V196.463L134.816 196.558C133.995 196.937 133.301 197 132.732 196.747C132.227 196.494 131.754 196.116 131.312 195.61C130.933 195.105 130.554 194.537 130.175 193.905C129.859 193.211 129.48 192.611 129.038 192.105C128.785 191.285 128.691 190.59 128.754 190.021C128.817 189.39 129.101 188.758 129.606 188.127L129.796 188.032C129.417 187.527 129.291 187.085 129.417 186.706C129.606 186.264 129.796 185.854 129.985 185.475C130.238 185.096 130.396 184.717 130.459 184.338C130.585 183.896 130.396 183.391 129.891 182.822L130.08 182.633C130.901 181.812 131.343 180.896 131.406 179.886C131.469 178.812 131.406 177.739 131.217 176.665C131.09 175.591 130.996 174.518 130.933 173.444C130.933 172.371 131.248 171.392 131.88 170.508L131.975 170.413C132.038 170.034 131.785 169.529 131.217 168.897C130.648 168.266 130.206 167.792 129.891 167.477C129.512 168.424 129.007 168.929 128.375 168.992C127.807 168.992 127.144 168.897 126.386 168.708C125.691 168.519 124.996 168.361 124.302 168.234C123.607 168.108 122.976 168.329 122.407 168.897L121.934 169.276L121.744 168.897C121.492 168.329 121.144 168.045 120.702 168.045C120.323 167.982 119.881 167.982 119.376 168.045C118.618 168.108 117.892 168.171 117.197 168.234C116.566 168.234 115.903 168.234 115.208 168.234C114.829 167.919 114.387 167.792 113.882 167.855C113.44 167.919 112.966 167.982 112.461 168.045C112.019 168.108 111.545 168.14 111.04 168.14C110.598 168.076 110.156 167.792 109.714 167.287C109.272 167.477 108.577 168.234 107.63 169.561C106.683 170.824 105.672 172.244 104.599 173.823C103.588 175.402 102.609 176.949 101.662 178.465C100.778 179.917 100.178 180.928 99.8623 181.496C99.6097 181.875 99.2939 182.349 98.915 182.917C98.5993 183.485 98.252 184.085 97.873 184.717C97.4941 185.285 97.1468 185.854 96.8311 186.422C96.5153 186.927 96.2627 187.369 96.0732 187.748L96.168 188.032C96.168 188.664 96.0732 189.169 95.8838 189.548C95.6943 189.864 95.4417 190.148 95.126 190.4C94.8734 190.59 94.6208 190.779 94.3682 190.969C94.1156 191.095 93.8945 191.253 93.7051 191.442C93.1999 191.442 92.821 191.569 92.5684 191.821C92.3158 192.074 92.0947 192.358 91.9053 192.674C91.7158 192.99 91.4948 193.274 91.2422 193.526C90.9264 193.779 90.4528 193.905 89.8213 193.905C89.5687 194.221 89.4108 194.442 89.3477 194.568C89.2845 194.695 89.1898 194.947 89.0635 195.326C88.9372 195.768 88.8424 196.084 88.7793 196.273C88.653 196.463 88.5583 196.589 88.4951 196.652C88.3688 196.779 88.2425 196.873 88.1162 196.937C87.9899 197.063 87.8636 197.221 87.7373 197.41C87.3584 197.473 87.0742 197.41 86.8848 197.221C86.6953 197.031 86.5059 196.779 86.3164 196.463C86.127 196.21 85.9691 195.926 85.8428 195.61C85.6533 195.358 85.4323 195.168 85.1797 195.042L85.2744 194.758C86.5374 191.032 88.0531 187.495 89.8213 184.148C91.5895 180.738 93.484 177.36 95.5049 174.013C95.6312 173.76 95.7259 173.507 95.7891 173.255C95.8522 173.002 95.9469 172.75 96.0732 172.497C96.389 171.676 96.7048 170.887 97.0205 170.129C97.3994 169.371 97.8415 168.645 98.3467 167.95C98.7887 167.256 99.1676 166.592 99.4834 165.961C99.8623 165.329 100.21 164.666 100.525 163.972L100.336 163.782C98.3151 162.14 96.5469 160.467 95.0312 158.762C93.5788 156.993 92.1895 155.004 90.8633 152.794C90.5475 152.226 90.2318 151.657 89.916 151.089C89.6003 150.457 89.2845 149.889 88.9688 149.384L88.874 149.289C88.874 148.026 88.9688 146.763 89.1582 145.5C89.3477 144.237 89.916 143.132 90.8633 142.185L90.958 142.09V141.995C91.2738 141.364 91.6211 140.89 92 140.574C92.3789 140.258 92.7578 140.006 93.1367 139.816C93.5788 139.627 94.0208 139.469 94.4629 139.343C94.9049 139.153 95.347 138.869 95.7891 138.49V138.396C97.2415 137.764 98.6624 137.227 100.052 136.785C101.441 136.343 102.925 136.533 104.504 137.354L104.693 137.259C105.262 136.943 105.956 136.785 106.777 136.785C107.598 136.722 108.325 136.69 108.956 136.69C109.335 136.88 109.714 137.132 110.093 137.448C110.535 137.701 110.945 137.953 111.324 138.206C111.766 138.459 112.208 138.648 112.65 138.774C113.092 138.901 113.503 138.869 113.882 138.68H113.977V138.585C114.608 137.953 115.113 137.069 115.492 135.933C115.871 134.733 116.25 133.47 116.629 132.144C117.071 130.817 117.545 129.523 118.05 128.26C118.555 126.934 119.25 125.797 120.134 124.85C120.134 124.66 120.26 124.25 120.513 123.618C120.765 122.924 121.018 122.166 121.271 121.345C121.586 120.461 121.807 119.608 121.934 118.787C122.123 117.903 122.123 117.177 121.934 116.608L122.786 116.703C123.039 116.451 123.197 116.229 123.26 116.04L123.165 115.756C122.912 115.503 122.818 115.188 122.881 114.809C122.944 114.43 123.039 114.082 123.165 113.767H123.07L122.976 113.388C123.165 113.325 123.512 113.198 124.018 113.009C124.586 112.819 125.154 112.598 125.723 112.346C126.291 112.093 126.796 111.872 127.238 111.683C127.743 111.493 128.028 111.398 128.091 111.398C128.975 111.904 129.449 112.472 129.512 113.104C129.638 113.735 129.606 114.493 129.417 115.377C129.354 115.819 129.322 116.198 129.322 116.514C129.385 116.766 129.417 117.082 129.417 117.461C129.417 118.092 129.259 118.882 128.943 119.829C128.628 120.713 128.249 121.66 127.807 122.671C127.428 123.681 126.986 124.629 126.48 125.513C125.975 126.397 125.533 127.123 125.154 127.691V128.26C125.154 129.586 124.965 130.975 124.586 132.428C124.207 133.817 123.733 135.206 123.165 136.596C122.597 137.985 121.965 139.343 121.271 140.669C120.639 141.995 120.007 143.258 119.376 144.458C118.934 145.216 118.46 146.1 117.955 147.11C117.45 148.058 116.945 149.036 116.439 150.047C115.997 151.057 115.587 152.099 115.208 153.173C114.892 154.183 114.671 155.099 114.545 155.92V156.015L112.177 160.467C112.429 160.783 112.808 161.067 113.313 161.319C113.882 161.509 114.45 161.698 115.019 161.888C115.65 162.077 116.25 162.235 116.818 162.361C117.45 162.424 117.987 162.456 118.429 162.456C119.123 162.456 119.692 162.519 120.134 162.646C120.639 162.709 121.144 163.024 121.649 163.593L121.839 163.782H122.028C122.534 163.656 122.976 163.593 123.354 163.593C123.733 163.593 124.175 163.593 124.681 163.593C125.186 163.719 125.66 163.751 126.102 163.688C126.607 163.624 127.112 163.561 127.617 163.498L127.522 164.161C127.838 164.477 128.091 164.698 128.28 164.824C128.596 164.319 128.975 163.814 129.417 163.309C129.67 163.688 129.891 163.972 130.08 164.161C130.27 164.035 130.491 163.782 130.743 163.403C131.059 163.024 131.28 162.835 131.406 162.835L131.501 162.74L131.596 162.835C132.732 163.214 133.774 163.34 134.722 163.214C135.669 163.088 136.711 163.024 137.848 163.024C138.037 162.582 138.29 162.235 138.605 161.982C138.984 161.73 139.3 161.477 139.553 161.225C139.868 160.909 140.058 160.593 140.121 160.277C140.184 159.962 140.026 159.52 139.647 158.951L139.553 158.762C139.553 158.762 139.647 158.572 139.837 158.193C140.09 157.814 140.342 157.404 140.595 156.962C140.847 156.457 141.068 156.015 141.258 155.636C141.51 155.257 141.668 155.004 141.731 154.878C142.994 152.794 144.1 150.678 145.047 148.531C145.994 146.321 146.468 143.984 146.468 141.521V140.858C146.594 140.795 146.72 140.764 146.847 140.764C147.794 140.385 148.299 139.88 148.362 139.248C148.425 138.553 148.394 137.827 148.268 137.069C148.141 136.312 148.141 135.554 148.268 134.796C148.457 134.038 149.12 133.375 150.257 132.807L150.446 132.712L150.541 132.522C150.92 131.575 151.236 130.628 151.488 129.681C151.804 128.67 152.151 127.691 152.53 126.744C153.73 123.902 154.614 120.84 155.183 117.556C155.309 116.798 155.593 116.135 156.035 115.566C156.54 114.935 157.046 114.335 157.551 113.767C158.056 113.135 158.498 112.504 158.877 111.872C159.319 111.177 159.54 110.42 159.54 109.599C159.54 109.093 159.477 108.746 159.351 108.557V108.272L159.54 108.178C160.803 107.546 161.782 106.757 162.477 105.81C163.171 104.862 163.519 103.662 163.519 102.21C163.519 102.021 163.487 101.673 163.424 101.168C163.424 100.663 163.361 100.347 163.234 100.221C163.803 99.8418 164.403 99.3366 165.034 98.7051L165.224 98.7998C166.424 99.6839 167.15 100.6 167.402 101.547C167.718 102.431 167.781 103.347 167.592 104.294C167.465 105.241 167.244 106.22 166.929 107.23C166.613 108.241 166.455 109.283 166.455 110.356L166.36 110.451C165.413 112.093 164.655 113.956 164.087 116.04C163.519 118.124 163.234 120.145 163.234 122.103C162.54 122.103 162.098 122.26 161.908 122.576C161.782 122.892 161.656 123.302 161.529 123.808C161.466 124.25 161.34 124.723 161.15 125.229C161.024 125.734 160.645 126.176 160.014 126.555L160.203 126.839C160.203 126.965 160.203 127.06 160.203 127.123C160.266 127.186 160.298 127.281 160.298 127.407C160.298 127.786 160.203 128.133 160.014 128.449C159.824 128.702 159.635 128.986 159.445 129.302C159.256 129.554 159.13 129.839 159.066 130.154C159.066 130.47 159.224 130.817 159.54 131.196C159.793 131.575 159.951 131.796 160.014 131.859H158.972C157.961 133.817 157.046 135.806 156.225 137.827C155.404 139.848 154.646 141.9 153.951 143.984C153.383 145.753 152.783 147.489 152.151 149.194C151.52 150.899 150.762 152.573 149.878 154.215V154.499C150.446 155.573 150.478 156.425 149.973 157.057C149.531 157.688 149.025 158.257 148.457 158.762C147.952 159.204 147.604 159.646 147.415 160.088C147.226 160.53 147.668 161.098 148.741 161.793C149.562 160.972 150.32 160.688 151.015 160.94C151.709 161.193 152.562 161.446 153.572 161.698C153.762 161.509 153.92 161.351 154.046 161.225C154.235 161.035 154.52 161.004 154.898 161.13C154.962 161.193 155.025 161.256 155.088 161.319C155.151 161.319 155.214 161.351 155.277 161.414C155.656 160.846 156.004 160.53 156.319 160.467C156.635 160.404 156.951 160.435 157.267 160.562C157.582 160.688 157.898 160.814 158.214 160.94C158.53 161.067 158.845 161.035 159.161 160.846C159.351 160.719 159.477 160.53 159.54 160.277C159.603 159.962 159.698 159.677 159.824 159.425C160.771 160.372 161.561 160.846 162.192 160.846C162.887 160.783 163.519 160.593 164.087 160.277C164.718 159.898 165.318 159.551 165.887 159.235C166.518 158.92 167.244 158.951 168.065 159.33C168.76 159.33 169.455 159.267 170.149 159.141C170.907 158.951 171.633 158.793 172.328 158.667C174.16 158.351 175.959 158.099 177.728 157.909C179.496 157.72 181.296 157.783 183.127 158.099L183.222 158.856ZM110.377 140.669C109.809 140.669 109.272 140.701 108.767 140.764C108.325 140.827 107.914 141.048 107.535 141.427C107.472 141.364 107.409 141.332 107.346 141.332C104.883 140.637 102.515 140.764 100.241 141.711C97.9678 142.658 96.0101 144.016 94.3682 145.784L94.1787 146.542C94.1156 146.731 94.084 146.952 94.084 147.205C94.084 147.395 94.084 147.552 94.084 147.679C94.084 148.879 94.3682 149.984 94.9365 150.994C95.3154 151.752 95.7575 152.383 96.2627 152.889C96.8311 153.394 97.431 153.868 98.0625 154.31C98.7572 154.752 99.4202 155.194 100.052 155.636C100.746 156.078 101.378 156.615 101.946 157.246C103.209 157.246 104.062 156.93 104.504 156.299C105.009 155.604 105.356 154.815 105.546 153.931C105.799 152.983 106.051 152.036 106.304 151.089C106.556 150.142 107.093 149.384 107.914 148.815C107.977 148.815 108.009 148.815 108.009 148.815C108.009 148.752 108.04 148.721 108.104 148.721C107.851 148.089 107.851 147.458 108.104 146.826C108.419 146.195 108.767 145.563 109.146 144.932C109.588 144.3 109.935 143.637 110.188 142.942C110.503 142.248 110.566 141.49 110.377 140.669ZM242.729 165.014C242.161 165.582 241.718 166.024 241.403 166.34C241.15 166.656 240.898 166.971 240.645 167.287C240.455 167.54 240.203 167.824 239.887 168.14C239.635 168.455 239.224 168.929 238.656 169.561C238.15 170.066 237.677 170.603 237.235 171.171C236.793 171.739 236.287 172.244 235.719 172.687C234.961 172.497 234.361 172.592 233.919 172.971C233.54 173.35 233.162 173.792 232.783 174.297C232.467 174.739 232.151 175.181 231.835 175.623C231.583 176.002 231.235 176.16 230.793 176.097C229.278 176.918 227.762 177.644 226.246 178.275C224.731 178.844 223.278 179.696 221.889 180.833L221.131 180.075L211.28 184.812C210.964 184.938 210.648 185.127 210.332 185.38C210.017 185.632 209.701 185.854 209.385 186.043C207.996 186.801 206.543 187.495 205.028 188.127C203.575 188.695 202.123 189.232 200.67 189.737L199.439 190.116C199.944 191.379 199.944 192.263 199.439 192.769C198.934 193.274 198.207 193.653 197.26 193.905C196.313 194.095 195.271 194.221 194.134 194.284C192.997 194.347 192.113 194.568 191.482 194.947C190.724 194.821 189.935 194.758 189.114 194.758C188.356 194.821 187.566 194.916 186.746 195.042C185.861 195.168 185.04 195.231 184.283 195.231C183.525 195.231 182.704 195.137 181.82 194.947H181.63C180.557 195.452 179.609 195.547 178.788 195.231C178.031 194.979 177.336 194.537 176.704 193.905C176.073 193.211 175.473 192.421 174.905 191.537C174.399 190.59 173.863 189.737 173.294 188.979C172.915 188.474 172.442 187.748 171.873 186.801C171.305 185.854 170.831 184.843 170.453 183.77C170.01 182.696 169.758 181.622 169.695 180.549C169.568 179.412 169.789 178.433 170.358 177.612C170.926 176.791 171.4 175.907 171.779 174.96C172.094 174.013 172.252 172.908 172.252 171.645C172.252 171.202 172.252 170.792 172.252 170.413C172.189 170.034 172.158 169.624 172.158 169.182C172.473 169.182 172.821 169.213 173.2 169.276C173.579 169.276 173.926 169.276 174.242 169.276C174.621 169.213 174.905 169.087 175.094 168.897C175.347 168.645 175.473 168.234 175.473 167.666C175.473 167.35 175.347 167.098 175.094 166.908C174.905 166.719 174.778 166.529 174.715 166.34C175.094 165.771 175.441 165.329 175.757 165.014C176.136 164.635 176.452 164.287 176.704 163.972C176.957 163.593 177.147 163.182 177.273 162.74C177.399 162.235 177.368 161.572 177.178 160.751C177.936 159.425 178.82 158.257 179.83 157.246C180.904 156.173 182.009 155.194 183.146 154.31C184.283 153.362 185.451 152.447 186.651 151.562C187.851 150.678 188.987 149.731 190.061 148.721C191.261 149.226 192.208 149.226 192.903 148.721C193.661 148.215 194.324 147.679 194.892 147.11C195.46 146.479 196.029 145.974 196.597 145.595C197.165 145.216 197.923 145.374 198.871 146.068L199.06 146.258C200.765 144.553 202.47 143.795 204.175 143.984C205.943 144.174 207.427 144.742 208.627 145.689C209.89 146.637 210.711 147.742 211.09 149.005C211.469 150.205 211.122 151.026 210.048 151.468C210.743 152.162 211.09 152.983 211.09 153.931C211.09 154.878 210.838 155.699 210.332 156.394C209.764 157.151 209.259 157.941 208.817 158.762C208.438 159.52 208.027 160.34 207.585 161.225C206.954 162.677 206.259 164.066 205.501 165.393C204.744 166.656 203.67 167.729 202.281 168.613C201.144 168.298 200.355 168.424 199.912 168.992C199.534 169.561 199.249 170.192 199.06 170.887C198.871 171.518 198.649 172.023 198.397 172.402C198.144 172.781 197.607 172.655 196.787 172.023L196.597 171.834L196.408 172.023C195.902 172.529 195.492 173.097 195.176 173.729C194.924 174.36 194.545 174.834 194.039 175.149C193.471 174.96 192.871 174.802 192.24 174.676C191.608 174.549 191.008 174.423 190.44 174.297C190.44 175.623 190.187 176.665 189.682 177.423C189.177 178.181 188.514 178.812 187.693 179.317C186.935 179.759 186.051 180.138 185.04 180.454C184.03 180.707 183.02 181.054 182.009 181.496C181.062 181.875 180.146 182.38 179.262 183.012C178.441 183.58 177.778 184.401 177.273 185.475C177.904 186.169 178.694 186.58 179.641 186.706C180.588 186.769 181.567 186.769 182.578 186.706C183.588 186.58 184.567 186.517 185.514 186.517C186.524 186.517 187.409 186.769 188.166 187.274L188.261 187.369L188.356 187.274C189.871 187.085 191.324 186.738 192.713 186.232C194.166 185.664 195.555 185.096 196.881 184.527C198.271 183.896 199.66 183.327 201.049 182.822C202.502 182.254 203.986 181.843 205.501 181.591C205.817 182.096 206.228 182.38 206.733 182.443C207.301 182.507 207.838 182.475 208.343 182.349L208.438 182.159C208.564 181.717 208.69 181.338 208.817 181.022C208.943 180.644 209.133 180.233 209.385 179.791C209.827 179.096 210.364 178.56 210.996 178.181C211.627 177.802 212.29 177.518 212.985 177.328C213.743 177.139 214.532 177.012 215.353 176.949C216.174 176.886 216.995 176.791 217.816 176.665H218.005L218.1 176.381C218.353 175.623 218.668 175.118 219.047 174.865C219.489 174.549 219.931 174.328 220.373 174.202C220.879 174.076 221.384 173.981 221.889 173.918C222.457 173.855 222.994 173.665 223.499 173.35C224.636 173.729 225.583 173.602 226.341 172.971C227.099 172.339 227.825 171.676 228.52 170.981L229.278 171.929L229.562 171.55C230.509 170.666 231.204 170.003 231.646 169.561C232.151 169.118 232.625 168.74 233.067 168.424C233.509 168.045 234.014 167.698 234.582 167.382C235.214 167.003 236.066 166.466 237.14 165.771C238.024 165.203 238.877 164.635 239.698 164.066C240.582 163.498 241.434 162.867 242.255 162.172C242.571 162.298 242.729 162.551 242.729 162.93C242.729 163.245 242.729 163.561 242.729 163.877C242.666 164.003 242.603 164.193 242.539 164.445C242.539 164.698 242.603 164.887 242.729 165.014ZM203.512 153.173C203.449 153.11 203.386 153.078 203.323 153.078C203.323 153.078 203.291 153.047 203.228 152.983C201.902 152.289 200.797 151.973 199.912 152.036C199.028 152.036 198.207 152.289 197.45 152.794C196.755 153.236 196.092 153.836 195.46 154.594C194.892 155.288 194.26 155.951 193.566 156.583C192.934 157.151 192.176 157.593 191.292 157.909C190.408 158.225 189.335 158.193 188.072 157.814C187.882 158.825 187.693 159.835 187.503 160.846C187.377 161.793 187.282 162.772 187.219 163.782C186.146 164.161 185.293 164.698 184.662 165.393C184.093 166.087 183.588 166.845 183.146 167.666C182.767 168.487 182.388 169.371 182.009 170.318C181.693 171.202 181.251 172.055 180.683 172.876L181.062 173.35C181.315 173.223 181.599 173.318 181.914 173.634C182.23 173.95 182.451 174.171 182.578 174.297C183.272 173.286 184.188 172.434 185.325 171.739C186.524 171.045 187.724 170.413 188.924 169.845C190.187 169.213 191.387 168.55 192.524 167.855C193.661 167.161 194.513 166.245 195.081 165.108C197.102 164.54 198.618 163.403 199.628 161.698C200.639 159.993 201.491 158.225 202.186 156.394C202.312 156.015 202.533 155.478 202.849 154.783C203.228 154.025 203.449 153.489 203.512 153.173ZM297.31 162.93C297.373 163.877 297.184 164.793 296.742 165.677C296.363 166.561 296.016 167.35 295.7 168.045L292.669 171.266L290.869 176.665C290.174 177.17 289.416 177.675 288.596 178.181C287.838 178.623 287.143 179.096 286.512 179.602C285.817 180.17 285.185 180.801 284.617 181.496C284.112 182.191 283.543 182.791 282.912 183.296C282.28 183.801 281.523 184.243 280.638 184.622C279.818 184.938 279.06 185.317 278.365 185.759C277.102 186.517 275.902 187.306 274.765 188.127C273.692 188.948 272.555 189.737 271.355 190.495C271.04 190.621 270.787 190.779 270.597 190.969C270.471 191.095 270.25 191.221 269.934 191.348C269.745 191.474 268.924 191.727 267.471 192.105C266.019 192.484 264.409 192.926 262.64 193.432C260.935 193.874 259.325 194.284 257.809 194.663C256.294 195.042 255.441 195.231 255.252 195.231C254.115 195.358 252.947 195.421 251.747 195.421C250.547 195.421 249.347 195.452 248.147 195.516L246.726 196.368C246.032 195.863 245.274 195.389 244.453 194.947C243.632 194.505 242.937 194.032 242.369 193.526C241.737 192.958 241.106 192.326 240.474 191.632C239.843 190.874 239.275 190.179 238.769 189.548C238.454 188.664 238.138 187.811 237.822 186.99C237.506 186.106 237.254 185.254 237.064 184.433L236.591 180.833C236.464 179.633 236.338 178.465 236.212 177.328C236.149 176.191 236.054 175.023 235.928 173.823C237.001 170.855 237.948 167.887 238.769 164.919C239.653 161.888 240.727 158.92 241.99 156.015C242.306 155.32 242.59 154.625 242.843 153.931C243.158 153.173 243.474 152.447 243.79 151.752C244.169 150.994 244.579 150.299 245.021 149.668C245.463 148.973 245.842 148.279 246.158 147.584C246.474 146.826 246.726 146.068 246.916 145.311C247.105 144.49 247.358 143.732 247.674 143.037C247.863 142.658 248.179 142.121 248.621 141.427C249.063 140.669 249.537 139.911 250.042 139.153C250.547 138.332 251.021 137.543 251.463 136.785C251.968 136.027 252.378 135.427 252.694 134.985C253.199 134.354 253.705 133.754 254.21 133.186C254.715 132.617 255.125 131.986 255.441 131.291C256.073 130.217 256.673 128.86 257.241 127.218C257.809 125.576 258.441 124.123 259.136 122.86C259.893 121.471 260.777 120.176 261.788 118.977C262.861 117.714 263.84 116.419 264.724 115.093C265.672 113.767 266.587 112.314 267.471 110.735L271.639 107.704L273.534 109.599L278.081 108.841L280.923 113.104C280.796 114.051 280.638 115.124 280.449 116.324C280.323 117.524 280.196 118.756 280.07 120.019C280.007 121.218 279.944 122.418 279.881 123.618C279.881 124.755 279.944 125.765 280.07 126.649C279.754 127.786 279.281 128.986 278.649 130.249C278.081 131.449 277.418 132.491 276.66 133.375L276.281 138.49L272.492 141.9L272.018 146.731L268.798 150.521C268.608 151.405 268.419 152.32 268.229 153.268C268.04 154.152 267.787 155.004 267.471 155.825C267.156 156.583 266.777 157.372 266.335 158.193C265.893 158.951 265.451 159.741 265.009 160.562C263.746 161.635 262.451 162.835 261.125 164.161C259.799 165.487 258.599 166.813 257.525 168.14C256.957 168.834 256.42 169.592 255.915 170.413C255.473 171.171 254.999 171.897 254.494 172.592C252.852 174.676 251.084 176.633 249.189 178.465C247.295 180.296 245.432 182.191 243.6 184.148L245.684 187.843C247.011 188.285 248.368 188.695 249.758 189.074C251.147 189.453 252.536 189.8 253.926 190.116C254.557 189.99 255.283 189.864 256.104 189.737C256.925 189.548 257.778 189.358 258.662 189.169C259.546 188.916 260.399 188.664 261.22 188.411C262.104 188.159 262.83 187.906 263.398 187.653C264.661 187.148 266.114 186.422 267.756 185.475C269.398 184.464 270.787 183.58 271.924 182.822C273.944 181.559 275.997 180.265 278.081 178.938C280.165 177.612 282.154 176.223 284.049 174.771C285.312 173.823 286.638 172.623 288.027 171.171C289.416 169.718 290.711 168.361 291.911 167.098C293.174 165.771 294.279 164.698 295.226 163.877C296.237 163.056 296.931 162.74 297.31 162.93ZM271.545 118.124C270.219 120.334 268.798 122.481 267.282 124.565C265.83 126.586 264.472 128.702 263.209 130.912C262.767 131.67 262.388 132.459 262.072 133.28C261.756 134.038 261.346 134.796 260.841 135.554C260.399 136.248 259.925 136.943 259.42 137.638C258.915 138.332 258.472 139.09 258.094 139.911C257.336 141.364 256.641 142.911 256.01 144.553C255.441 146.132 254.81 147.679 254.115 149.194C253.357 150.71 252.473 152.131 251.463 153.457C250.452 154.783 249.537 156.204 248.716 157.72L247.2 160.751C247.074 161.067 246.947 161.319 246.821 161.509C246.695 161.635 246.568 161.856 246.442 162.172C246.19 162.867 246.063 163.624 246.063 164.445C246.063 165.266 245.969 166.024 245.779 166.719C245.59 167.477 245.305 168.203 244.927 168.897C244.548 169.592 244.2 170.287 243.885 170.981C243.569 171.676 243.316 172.402 243.127 173.16C242.937 173.855 242.716 174.549 242.464 175.244C242.969 174.739 243.506 174.297 244.074 173.918C244.706 173.476 245.305 173.002 245.874 172.497C246.442 171.929 246.979 171.329 247.484 170.697C247.989 170.066 248.558 169.497 249.189 168.992C249.758 168.487 250.358 168.045 250.989 167.666C251.684 167.224 252.347 166.782 252.978 166.34C253.989 164.951 254.873 163.53 255.631 162.077C256.01 161.382 256.325 160.593 256.578 159.709C256.894 158.825 257.273 158.035 257.715 157.341C258.094 156.646 258.567 155.983 259.136 155.352C259.767 154.72 260.304 154.057 260.746 153.362C261.251 152.668 261.662 151.941 261.977 151.184C262.356 150.426 262.767 149.7 263.209 149.005C264.093 147.616 265.072 146.289 266.145 145.026L266.619 139.059L270.029 135.08L270.503 131.48L272.871 128.165L273.155 122.86L271.545 118.124ZM352.934 162.93C352.997 163.877 352.807 164.793 352.365 165.677C351.987 166.561 351.639 167.35 351.323 168.045L348.292 171.266L346.492 176.665C345.798 177.17 345.04 177.675 344.219 178.181C343.461 178.623 342.766 179.096 342.135 179.602C341.44 180.17 340.809 180.801 340.24 181.496C339.735 182.191 339.167 182.791 338.535 183.296C337.904 183.801 337.146 184.243 336.262 184.622C335.441 184.938 334.683 185.317 333.988 185.759C332.725 186.517 331.526 187.306 330.389 188.127C329.315 188.948 328.179 189.737 326.979 190.495C326.663 190.621 326.41 190.779 326.221 190.969C326.095 191.095 325.874 191.221 325.558 191.348C325.368 191.474 324.547 191.727 323.095 192.105C321.642 192.484 320.032 192.926 318.264 193.432C316.559 193.874 314.948 194.284 313.433 194.663C311.917 195.042 311.065 195.231 310.875 195.231C309.738 195.358 308.57 195.421 307.37 195.421C306.17 195.421 304.971 195.452 303.771 195.516L302.35 196.368C301.655 195.863 300.897 195.389 300.076 194.947C299.255 194.505 298.561 194.032 297.992 193.526C297.361 192.958 296.729 192.326 296.098 191.632C295.466 190.874 294.898 190.179 294.393 189.548C294.077 188.664 293.761 187.811 293.446 186.99C293.13 186.106 292.877 185.254 292.688 184.433L292.214 180.833C292.088 179.633 291.961 178.465 291.835 177.328C291.772 176.191 291.677 175.023 291.551 173.823C292.625 170.855 293.572 167.887 294.393 164.919C295.277 161.888 296.35 158.92 297.613 156.015C297.929 155.32 298.213 154.625 298.466 153.931C298.782 153.173 299.098 152.447 299.413 151.752C299.792 150.994 300.203 150.299 300.645 149.668C301.087 148.973 301.466 148.279 301.781 147.584C302.097 146.826 302.35 146.068 302.539 145.311C302.729 144.49 302.981 143.732 303.297 143.037C303.487 142.658 303.802 142.121 304.244 141.427C304.686 140.669 305.16 139.911 305.665 139.153C306.17 138.332 306.644 137.543 307.086 136.785C307.591 136.027 308.002 135.427 308.318 134.985C308.823 134.354 309.328 133.754 309.833 133.186C310.338 132.617 310.749 131.986 311.065 131.291C311.696 130.217 312.296 128.86 312.864 127.218C313.433 125.576 314.064 124.123 314.759 122.86C315.517 121.471 316.401 120.176 317.411 118.977C318.485 117.714 319.464 116.419 320.348 115.093C321.295 113.767 322.211 112.314 323.095 110.735L327.263 107.704L329.157 109.599L333.704 108.841L336.546 113.104C336.42 114.051 336.262 115.124 336.072 116.324C335.946 117.524 335.82 118.756 335.694 120.019C335.63 121.218 335.567 122.418 335.504 123.618C335.504 124.755 335.567 125.765 335.694 126.649C335.378 127.786 334.904 128.986 334.273 130.249C333.704 131.449 333.041 132.491 332.283 133.375L331.904 138.49L328.115 141.9L327.642 146.731L324.421 150.521C324.232 151.405 324.042 152.32 323.853 153.268C323.663 154.152 323.411 155.004 323.095 155.825C322.779 156.583 322.4 157.372 321.958 158.193C321.516 158.951 321.074 159.741 320.632 160.562C319.369 161.635 318.074 162.835 316.748 164.161C315.422 165.487 314.222 166.813 313.149 168.14C312.58 168.834 312.043 169.592 311.538 170.413C311.096 171.171 310.623 171.897 310.117 172.592C308.475 174.676 306.707 176.633 304.813 178.465C302.918 180.296 301.055 182.191 299.224 184.148L301.308 187.843C302.634 188.285 303.992 188.695 305.381 189.074C306.77 189.453 308.16 189.8 309.549 190.116C310.181 189.99 310.907 189.864 311.728 189.737C312.549 189.548 313.401 189.358 314.285 189.169C315.169 188.916 316.022 188.664 316.843 188.411C317.727 188.159 318.453 187.906 319.022 187.653C320.285 187.148 321.737 186.422 323.379 185.475C325.021 184.464 326.41 183.58 327.547 182.822C329.568 181.559 331.62 180.265 333.704 178.938C335.788 177.612 337.778 176.223 339.672 174.771C340.935 173.823 342.261 172.623 343.651 171.171C345.04 169.718 346.335 168.361 347.534 167.098C348.797 165.771 349.903 164.698 350.85 163.877C351.86 163.056 352.555 162.74 352.934 162.93ZM327.168 118.124C325.842 120.334 324.421 122.481 322.905 124.565C321.453 126.586 320.095 128.702 318.832 130.912C318.39 131.67 318.011 132.459 317.696 133.28C317.38 134.038 316.969 134.796 316.464 135.554C316.022 136.248 315.548 136.943 315.043 137.638C314.538 138.332 314.096 139.09 313.717 139.911C312.959 141.364 312.265 142.911 311.633 144.553C311.065 146.132 310.433 147.679 309.738 149.194C308.981 150.71 308.097 152.131 307.086 153.457C306.076 154.783 305.16 156.204 304.339 157.72L302.823 160.751C302.697 161.067 302.571 161.319 302.445 161.509C302.318 161.635 302.192 161.856 302.066 162.172C301.813 162.867 301.687 163.624 301.687 164.445C301.687 165.266 301.592 166.024 301.403 166.719C301.213 167.477 300.929 168.203 300.55 168.897C300.171 169.592 299.824 170.287 299.508 170.981C299.192 171.676 298.94 172.402 298.75 173.16C298.561 173.855 298.34 174.549 298.087 175.244C298.592 174.739 299.129 174.297 299.697 173.918C300.329 173.476 300.929 173.002 301.497 172.497C302.066 171.929 302.602 171.329 303.108 170.697C303.613 170.066 304.181 169.497 304.813 168.992C305.381 168.487 305.981 168.045 306.613 167.666C307.307 167.224 307.97 166.782 308.602 166.34C309.612 164.951 310.496 163.53 311.254 162.077C311.633 161.382 311.949 160.593 312.201 159.709C312.517 158.825 312.896 158.035 313.338 157.341C313.717 156.646 314.191 155.983 314.759 155.352C315.39 154.72 315.927 154.057 316.369 153.362C316.875 152.668 317.285 151.941 317.601 151.184C317.98 150.426 318.39 149.7 318.832 149.005C319.716 147.616 320.695 146.289 321.769 145.026L322.242 139.059L325.653 135.08L326.126 131.48L328.494 128.165L328.779 122.86L327.168 118.124ZM409.978 164.256C410.231 165.203 410.136 166.024 409.694 166.719C409.252 167.35 408.652 167.919 407.894 168.424C407.199 168.929 406.41 169.403 405.526 169.845C404.705 170.224 404.01 170.666 403.442 171.171C400.6 171.802 398.011 172.276 395.674 172.592C393.401 172.844 390.875 173.192 388.096 173.634C387.275 173.76 386.486 173.76 385.728 173.634C385.033 173.444 384.307 173.381 383.549 173.444C383.107 173.444 382.697 173.444 382.318 173.444C381.939 173.381 381.56 173.381 381.181 173.444C379.729 173.571 378.782 174.076 378.339 174.96C377.897 175.781 377.518 176.76 377.203 177.896C376.95 178.97 376.603 180.012 376.161 181.022C375.782 181.97 374.929 182.633 373.603 183.012C373.477 183.327 373.508 183.612 373.698 183.864C373.95 184.117 374.14 184.338 374.266 184.527C373.193 184.843 372.466 185.411 372.087 186.232C371.772 187.053 371.488 187.874 371.235 188.695C370.982 189.516 370.603 190.211 370.098 190.779C369.656 191.348 368.772 191.537 367.446 191.348C365.488 193.432 363.183 195.105 360.531 196.368C357.879 197.694 355.131 198.547 352.29 198.926C351.784 198.673 351.279 198.357 350.774 197.979C350.332 197.6 349.858 197.252 349.353 196.937C348.911 196.621 348.406 196.368 347.837 196.179C347.332 196.052 346.732 196.052 346.038 196.179C345.975 194.853 345.722 193.621 345.28 192.484C344.775 191.348 344.143 190.274 343.385 189.264C343.259 188.127 343.417 187.085 343.859 186.138C344.238 185.127 344.648 184.148 345.09 183.201C345.532 182.254 345.911 181.307 346.227 180.359C346.48 179.349 346.417 178.212 346.038 176.949C346.669 176.57 347.08 176.128 347.269 175.623C347.522 175.118 347.68 174.613 347.743 174.107C347.869 173.539 348.027 173.034 348.216 172.592C348.406 172.087 348.848 171.676 349.543 171.36C349.037 169.845 349.101 168.74 349.732 168.045C350.427 167.287 351.248 166.624 352.195 166.056C353.142 165.487 354.026 164.856 354.847 164.161C355.668 163.466 355.984 162.424 355.795 161.035C356.173 160.656 356.615 160.34 357.121 160.088C357.626 159.835 358.1 159.614 358.542 159.425C359.047 159.172 359.52 158.92 359.962 158.667C360.405 158.414 360.815 158.067 361.194 157.625C360.752 157.309 360.531 156.993 360.531 156.678C360.594 156.362 360.689 156.046 360.815 155.73C360.941 155.352 361.068 154.973 361.194 154.594C361.383 154.215 361.383 153.836 361.194 153.457C362.899 153.71 364.383 153.489 365.646 152.794C366.972 152.036 368.204 151.278 369.34 150.521C370.54 149.763 371.74 149.226 372.94 148.91C374.14 148.594 375.529 148.973 377.108 150.047C377.234 150.489 377.424 151.152 377.676 152.036C377.992 152.857 378.276 153.71 378.529 154.594C378.845 155.478 379.129 156.33 379.381 157.151C379.634 157.972 379.792 158.572 379.855 158.951C379.855 159.267 379.855 159.772 379.855 160.467C379.855 161.161 379.855 161.919 379.855 162.74C379.855 163.498 379.855 164.224 379.855 164.919C379.855 165.614 379.855 166.15 379.855 166.529C381.686 167.603 383.518 168.266 385.349 168.519C387.181 168.708 389.012 168.266 390.843 167.192C391.538 167.824 392.201 168.013 392.833 167.761C393.464 167.445 394.064 167.098 394.632 166.719C395.264 166.34 395.895 166.15 396.527 166.15C397.158 166.087 397.79 166.592 398.421 167.666C399.306 166.845 400.221 166.34 401.169 166.15C402.116 165.898 403.095 165.771 404.105 165.771C405.115 165.708 406.094 165.614 407.042 165.487C408.052 165.361 409.031 164.951 409.978 164.256ZM373.603 165.866C373.603 164.919 373.761 163.909 374.077 162.835C374.393 161.761 374.645 160.719 374.835 159.709C375.024 158.635 374.992 157.625 374.74 156.678C374.55 155.73 373.95 154.878 372.94 154.12C372.245 154.499 371.677 155.036 371.235 155.73C370.793 156.362 370.351 157.025 369.909 157.72C369.467 158.351 368.93 158.888 368.298 159.33C367.73 159.772 366.972 159.898 366.025 159.709C365.709 160.467 365.709 161.098 366.025 161.604C366.341 162.046 366.72 162.488 367.162 162.93C367.604 163.309 368.014 163.719 368.393 164.161C368.835 164.603 368.993 165.172 368.867 165.866C369.119 166.056 369.467 166.245 369.909 166.435C370.351 166.561 370.793 166.656 371.235 166.719C371.74 166.719 372.214 166.656 372.656 166.529C373.098 166.403 373.414 166.182 373.603 165.866ZM372.94 173.444C371.677 173.444 370.572 173.16 369.625 172.592C368.74 171.96 367.825 171.266 366.878 170.508C365.993 169.75 365.046 169.055 364.036 168.424C363.088 167.729 361.92 167.319 360.531 167.192C359.962 167.95 359.299 168.676 358.542 169.371C357.784 170.003 357.121 170.697 356.552 171.455C355.984 172.213 355.573 173.034 355.321 173.918C355.131 174.802 355.289 175.812 355.795 176.949C354.342 177.644 353.363 178.654 352.858 179.98C352.353 181.243 352.005 182.633 351.816 184.148C351.69 185.664 351.563 187.18 351.437 188.695C351.311 190.211 350.9 191.569 350.206 192.769L352.29 191.348C352.542 191.474 352.732 191.663 352.858 191.916C353.047 192.169 353.079 192.453 352.953 192.769C353.458 192.263 354.026 191.884 354.658 191.632C355.289 191.316 355.921 191.095 356.552 190.969C357.247 190.779 357.91 190.621 358.542 190.495C359.236 190.369 359.899 190.179 360.531 189.927C362.11 190.811 363.246 191 363.941 190.495C364.636 189.99 365.204 189.232 365.646 188.222C366.088 187.211 366.562 186.169 367.067 185.096C367.572 183.959 368.393 183.264 369.53 183.012L368.867 182.349C369.94 181.022 370.888 179.665 371.709 178.275C372.593 176.823 373.003 175.213 372.94 173.444ZM444.099 110.546C444.225 111.241 444.193 111.967 444.004 112.725C443.878 113.482 443.72 114.272 443.53 115.093C443.341 115.851 443.151 116.64 442.962 117.461C442.836 118.219 442.836 119.008 442.962 119.829L441.446 121.818L442.109 122.292C441.225 122.671 440.625 123.302 440.31 124.187C440.057 125.071 439.868 125.986 439.741 126.934C439.615 127.881 439.394 128.797 439.078 129.681C438.826 130.502 438.226 131.102 437.278 131.48C437.152 132.996 436.773 134.449 436.142 135.838C435.51 137.227 434.847 138.617 434.152 140.006C433.9 140.385 433.616 140.795 433.3 141.237C433.047 141.616 432.858 141.995 432.731 142.374C432.479 143.069 432.258 143.7 432.068 144.269C431.942 144.837 431.721 145.437 431.405 146.068C431.09 146.826 430.711 147.552 430.269 148.247C429.826 148.879 429.416 149.542 429.037 150.236C428.911 150.552 428.785 150.899 428.658 151.278C428.532 151.657 428.374 152.005 428.185 152.32C427.616 153.457 427.048 154.562 426.479 155.636C425.974 156.646 425.659 157.814 425.532 159.141C424.648 159.898 423.953 160.783 423.448 161.793C423.006 162.803 422.564 163.814 422.122 164.824C421.743 165.835 421.333 166.782 420.891 167.666C420.449 168.487 419.849 169.182 419.091 169.75C418.586 169.497 418.207 169.15 417.954 168.708C417.701 168.203 417.512 167.698 417.386 167.192C417.323 166.687 417.259 166.15 417.196 165.582C417.196 165.014 417.133 164.508 417.007 164.066C417.891 163.624 418.459 163.024 418.712 162.267C418.965 161.509 419.091 160.719 419.091 159.898C419.091 159.014 419.091 158.162 419.091 157.341C419.154 156.457 419.375 155.667 419.754 154.973C419.943 154.657 420.133 154.436 420.322 154.31C420.512 154.183 420.733 153.994 420.985 153.741C421.743 153.047 422.343 152.131 422.785 150.994C423.29 149.794 423.732 148.531 424.111 147.205C424.49 145.816 424.838 144.458 425.153 143.132C425.532 141.806 425.943 140.669 426.385 139.722L428.469 137.638L427.806 137.069C428.437 136.185 428.942 135.27 429.321 134.322C429.7 133.312 430.079 132.333 430.458 131.386C430.837 130.438 431.311 129.523 431.879 128.639C432.447 127.755 433.205 126.997 434.152 126.365C433.837 124.976 433.773 123.713 433.963 122.576C434.215 121.376 434.626 120.24 435.194 119.166C435.763 118.092 436.426 117.05 437.184 116.04C438.005 115.03 438.794 113.988 439.552 112.914C439.236 111.651 439.489 110.609 440.31 109.788C440.688 109.851 441.067 109.82 441.446 109.693C441.825 109.567 442.204 109.472 442.583 109.409C442.962 109.346 443.278 109.378 443.53 109.504C443.783 109.63 443.972 109.978 444.099 110.546ZM416.154 187.085L416.628 187.559C416.249 188.001 415.839 188.474 415.396 188.979C414.954 189.485 414.449 189.958 413.881 190.4C413.376 190.779 412.807 191.095 412.176 191.348C411.607 191.537 411.007 191.537 410.376 191.348C409.555 191.474 408.797 191.253 408.103 190.685C407.471 190.116 407.187 189.422 407.25 188.601C407.313 187.78 407.534 187.148 407.913 186.706C408.355 186.264 408.766 185.759 409.145 185.19L408.86 184.812C408.86 184.306 408.924 183.959 409.05 183.77C409.176 183.58 409.302 183.264 409.429 182.822C409.618 181.812 410.06 181.086 410.755 180.644C411.513 180.138 412.302 179.917 413.123 179.98C414.007 179.98 414.797 180.265 415.491 180.833C416.186 181.338 416.596 182.064 416.723 183.012C416.912 183.327 416.944 183.706 416.817 184.148C416.754 184.527 416.628 184.875 416.438 185.19C416.628 185.38 416.975 185.601 417.48 185.854L416.154 187.085Z" fill="black"/>
</svg>
