<svg width="100" height="100" viewBox="0 0 100 100" fill="none" xmlns="http://www.w3.org/2000/svg">
<circle cx="50" cy="50" r="50" fill="white"/>
<path d="M46.2408 74.9513L40.2833 73.2227C39.6583 73.0469 39.3067 72.3925 39.4825 71.7675L52.8136 25.846C52.9894 25.221 53.6437 24.8694 54.2688 25.0452L60.2262 26.7738C60.8513 26.9496 61.2029 27.604 61.0271 28.229L47.696 74.1505C47.5104 74.7755 46.8659 75.1369 46.2408 74.9513V74.9513ZM35.1072 63.9934L39.3555 59.4619C39.8048 58.9833 39.7755 58.2215 39.2774 57.782L30.4291 49.9983L39.2774 42.2145C39.7755 41.775 39.8146 41.0132 39.3555 40.5346L35.1072 36.0031C34.6677 35.5343 33.9254 35.505 33.4469 35.9542L19.3736 49.1388C18.8755 49.5978 18.8755 50.3889 19.3736 50.8479L33.4469 64.0423C33.9254 64.4915 34.6677 64.472 35.1072 63.9934V63.9934ZM67.0627 64.052L81.136 50.8577C81.6341 50.3987 81.6341 49.6076 81.136 49.1486L67.0627 35.9445C66.5939 35.505 65.8517 35.5245 65.4024 35.9933L61.1541 40.5249C60.7048 41.0034 60.7341 41.7652 61.2322 42.2047L70.0805 49.9983L61.2322 57.782C60.7341 58.2215 60.695 58.9833 61.1541 59.4619L65.4024 63.9934C65.8419 64.472 66.5841 64.4915 67.0627 64.052V64.052Z" fill="black"/>
</svg>
