<svg width="100" height="100" viewBox="0 0 100 100" fill="none" xmlns="http://www.w3.org/2000/svg">
<circle cx="50" cy="50" r="50" fill="white"/>
<path d="M69.6429 25H30.3571C27.3996 25 25 27.3996 25 30.3571V69.6429C25 72.6004 27.3996 75 30.3571 75H69.6429C72.6004 75 75 72.6004 75 69.6429V30.3571C75 27.3996 72.6004 25 69.6429 25ZM52.2098 63.9955C52.2098 68.8616 49.3527 71.0826 45.1897 71.0826C41.4286 71.0826 39.2522 69.1406 38.1362 66.7857L41.9643 64.4754C42.7009 65.7813 43.3705 66.8862 44.9888 66.8862C46.529 66.8862 47.5112 66.2835 47.5112 63.9286V47.9576H52.2098V63.9955V63.9955ZM63.3259 71.0826C58.9621 71.0826 56.1384 69.0067 54.7656 66.2835L58.5937 64.0737C59.5982 65.7143 60.9152 66.9308 63.2254 66.9308C65.1674 66.9308 66.4174 65.9598 66.4174 64.6094C66.4174 63.0022 65.1451 62.433 62.9911 61.4844L61.8192 60.9821C58.4263 59.5424 56.183 57.7232 56.183 53.8951C56.183 50.3683 58.8728 47.6897 63.058 47.6897C66.0491 47.6897 68.192 48.7277 69.7321 51.4509L66.0714 53.7946C65.2679 52.3549 64.3973 51.7857 63.0469 51.7857C61.6741 51.7857 60.8036 52.6562 60.8036 53.7946C60.8036 55.2009 61.6741 55.7701 63.6942 56.6518L64.8661 57.154C68.8616 58.8616 71.1049 60.6138 71.1049 64.5424C71.1049 68.7612 67.779 71.0826 63.3259 71.0826V71.0826Z" fill="black"/>
</svg>
